<svg width="52" height="56" viewBox="0 0 52 56" fill="none" xmlns="http://www.w3.org/2000/svg">
<path d="M26 1L24.4365 3.39821C24.4365 3.39821 23.4 4.91828 22.3942 6.74116C21.8904 7.65563 21.4173 8.61047 21.0115 9.57944C20.6077 10.5484 20.2308 11.4407 20.2308 12.6075C20.2308 15.9282 22.8365 18.6636 26 18.6636C29.1635 18.6636 31.7692 15.9282 31.7692 12.6075C31.7692 11.4407 31.3942 10.5484 30.9885 9.57944C30.5827 8.61047 30.1096 7.65563 29.6058 6.74116C28.6 4.91828 27.5615 3.39619 27.5615 3.39619L26 1ZM26 18.6636H20.2308V26.7383H8.69232C4.44233 26.7383 1.00003 30.3518 1.00003 34.8131C0.995214 36.787 1.67933 38.6943 2.9231 40.1747V55H49.0769V40.1747C50.3207 38.6943 51.0048 36.787 51 34.8131C51 30.3518 47.5577 26.7383 43.3077 26.7383H31.7692V18.6636H26ZM26 8.31776C26.1269 8.53981 26.1135 8.52366 26.2404 8.75985C26.6981 9.58751 27.1865 10.4697 27.5019 11.2186C27.8173 11.9696 27.9231 12.662 27.9231 12.6075C27.9231 13.7279 27.0673 14.6262 26 14.6262C24.9327 14.6262 24.0769 13.7279 24.0769 12.6075C24.0769 12.662 24.1827 11.9696 24.4981 11.2186C24.8135 10.4717 25.3019 9.58751 25.7596 8.75985C25.8865 8.52366 25.8731 8.53779 26 8.31776ZM24.0769 22.7009H27.9231V26.7383H24.0769V22.7009ZM8.69232 30.7757H43.3077C45.5981 30.7757 47.1538 32.4088 47.1538 34.8131C47.1538 37.2173 45.5981 38.8505 43.3077 38.8505C41.0173 38.8505 39.4615 37.2173 39.4615 34.8131H35.6154C35.6154 37.2173 34.0596 38.8505 31.7692 38.8505C29.4788 38.8505 27.9231 37.2173 27.9231 34.8131H24.0769C24.0769 37.2173 22.5212 38.8505 20.2308 38.8505C17.9404 38.8505 16.3846 37.2173 16.3846 34.8131H12.5385C12.5385 37.2173 10.9827 38.8505 8.69232 38.8505C6.40194 38.8505 4.84618 37.2173 4.84618 34.8131C4.84618 32.4088 6.40194 30.7757 8.69232 30.7757ZM14.4615 40.1747C15.1844 41.0312 16.0728 41.7161 17.0676 42.184C18.0624 42.6518 19.1407 42.8917 20.2308 42.8878C21.3208 42.8917 22.3991 42.6518 23.3939 42.184C24.3887 41.7161 25.2771 41.0312 26 40.1747C26.7229 41.0312 27.6113 41.7161 28.6061 42.184C29.6009 42.6518 30.6792 42.8917 31.7692 42.8878C32.8593 42.8917 33.9376 42.6518 34.9324 42.184C35.9272 41.7161 36.8156 41.0312 37.5384 40.1747C38.2613 41.0312 39.1497 41.7161 40.1445 42.184C41.1393 42.6518 42.2176 42.8917 43.3077 42.8878C43.9769 42.8878 44.6154 42.7385 45.2307 42.5729V50.9626H6.76925V42.5729C7.38463 42.7385 8.02309 42.8878 8.69232 42.8878C9.78237 42.8917 10.8607 42.6518 11.8555 42.184C12.8503 41.7161 13.7387 41.0312 14.4615 40.1747Z" fill="#B3B4B6" stroke="#B3B4B6"/>
</svg>
