<svg id="Capa_1" enable-background="new 0 0 512 512" height="512" viewBox="0 0 512 512" width="512" xmlns="http://www.w3.org/2000/svg" xmlns:xlink="http://www.w3.org/1999/xlink"><linearGradient id="SVGID_1_" gradientUnits="userSpaceOnUse" x1="256" x2="256" y1="512" y2="0"><stop offset="0" stop-color="#a4ffe7"/><stop offset=".9973" stop-color="#e9fff3"/></linearGradient><linearGradient id="SVGID_2_" gradientUnits="userSpaceOnUse" x1="256" x2="256" y1="422" y2="0"><stop offset="0" stop-color="#00b59b"/><stop offset="1" stop-color="#4effa8"/></linearGradient><g><path d="m360.787 0 151.213 151.213v183.787c0 8.284-6.716 15-15 15h-482c-8.284 0-15-6.716-15-15v-183.787l151.213-151.213zm61.213 496.973v-117.568h-110v117.568c0 12.361 14.111 19.416 24 12l31-23.25 31 23.25c9.889 7.416 24 .36 24-12z" fill="url(#SVGID_1_)"/><path d="m151.213 0-151.213 151.213v-136.213c0-8.284 6.716-15 15-15zm345.787 0h-136.213l151.213 151.213v-136.213c0-8.284-6.716-15-15-15zm-135 75c0-8.284-6.716-15-15-15h-182c-8.284 0-15 6.716-15 15s6.716 15 15 15h182c8.284 0 15-6.716 15-15zm90 60c0-8.284-6.716-15-15-15h-362c-8.284 0-15 6.716-15 15s6.716 15 15 15h362c8.284 0 15-6.716 15-15zm0 60c0-8.284-6.716-15-15-15h-362c-8.284 0-15 6.716-15 15s6.716 15 15 15h362c8.284 0 15-6.716 15-15zm-180 60c0-8.284-6.716-15-15-15h-182c-8.284 0-15 6.716-15 15s6.716 15 15 15h182c8.284 0 15-6.716 15-15zm180 82c0-46.869-38.131-85-85-85s-85 38.131-85 85 38.131 85 85 85 85-38.131 85-85z" fill="url(#SVGID_2_)"/></g></svg>