<svg width="40" height="31" viewBox="0 0 40 31" fill="none" xmlns="http://www.w3.org/2000/svg">
<path d="M24.57 15.5C22.268 15.5 20.57 13.8551 20.57 11.625C20.57 9.39494 22.268 7.75 24.57 7.75C26.872 7.75 28.57 9.39494 28.57 11.625C28.57 13.8551 26.874 15.5 24.57 15.5Z" fill="#B3B4B6"/>
<path d="M4 0H36C38.206 0 40 1.62944 40 3.63281V27.3672C40 29.3706 38.206 31 36 31H4C1.794 31 0 29.3706 0 27.3672V3.63281C0 1.62944 1.794 0 4 0ZM4 27.125L36 27.1037V3.875L4 3.89631V27.125Z" fill="#B3B4B6"/>
<path d="M16 9.6875H8V13.5625H16V9.6875ZM14 17.4375H8V21.3125H14V17.4375ZM17.14 22.351C17.14 19.6889 20.492 16.9531 24.57 16.9531C28.648 16.9531 32 19.6889 32 22.351V23.25H17.14V22.351Z" fill="#B3B4B6"/>
</svg>
