<svg width="36" height="27" viewBox="0 0 36 27" fill="none" xmlns="http://www.w3.org/2000/svg">
<path d="M6.02273 0.75V0.749925L6.01662 0.750075L5.73226 0.757019L5.73226 0.756931L5.72564 0.757269C4.38863 0.825405 3.12645 1.3508 2.19956 2.23242C1.27189 3.11478 0.749916 4.28836 0.75 5.51389C0.75 5.5139 0.75 5.5139 0.75 5.51391V21.4861H0.749886L0.750114 21.4937L0.757842 21.7492L0.757707 21.7492L0.758224 21.7574C0.835415 22.9807 1.43032 24.1249 2.4111 24.9577C3.39115 25.7899 4.68365 26.2501 6.02273 26.25C6.02273 26.25 6.02274 26.25 6.02274 26.25L29.9773 26.25V26.2501L29.9834 26.2499L30.2677 26.243L30.2677 26.2431L30.2744 26.2427C31.6114 26.1746 32.8735 25.6492 33.8004 24.7676C34.7281 23.8852 35.2501 22.7116 35.25 21.4861V5.51389H35.2501L35.2499 5.50633L35.2422 5.25078L35.2423 5.25077L35.2418 5.24259C35.1646 4.01925 34.5697 2.87511 33.5889 2.04231C32.6088 1.21012 31.3163 0.749921 29.9773 0.75H6.02273ZM18.6405 16.039L18.6406 16.039L32.4318 9.59417V21.4802L32.4231 21.6674C32.3727 22.2029 32.1004 22.7083 31.6503 23.081C31.198 23.4555 30.601 23.6666 29.9773 23.6667H6.0274L5.81419 23.6587C5.19462 23.6117 4.62202 23.3578 4.20784 22.9536C3.7934 22.5491 3.5682 22.0248 3.56818 21.4861V9.59417L17.3594 16.039L17.3681 16.043L17.3771 16.0464L17.5501 16.1117L17.5587 16.1149L17.5675 16.1175C17.7434 16.1695 17.9284 16.1892 18.112 16.1758C18.2957 16.1624 18.4753 16.1162 18.6405 16.039ZM6.02274 3.33333H29.9726L30.1843 3.34132C30.8041 3.38798 31.3771 3.64178 31.7916 4.04604C32.2064 4.45054 32.4318 4.97499 32.4318 5.51389V6.69366L18 13.4379L3.56818 6.69366V5.51968L3.57692 5.33129C3.62762 4.79604 3.90013 4.29098 4.35015 3.91854C4.80237 3.54429 5.39919 3.33336 6.02273 3.33333C6.02273 3.33333 6.02273 3.33333 6.02274 3.33333Z" fill="#B3B4B6" stroke="#B3B4B6" stroke-width="0.5"/>
</svg>
