<svg id="Capa_1" enable-background="new 0 0 512 512" height="512" viewBox="0 0 512 512" width="512" xmlns="http://www.w3.org/2000/svg" xmlns:xlink="http://www.w3.org/1999/xlink"><linearGradient id="SVGID_1_" gradientUnits="userSpaceOnUse" x1="256" x2="256" y1="481.004" y2="30.997"><stop offset="0" stop-color="#c3ffe8"/><stop offset=".9973" stop-color="#f0fff4"/></linearGradient><linearGradient id="SVGID_2_" gradientUnits="userSpaceOnUse" x1="256" x2="256" y1="421.004" y2="61.004"><stop offset="0" stop-color="#00b59c"/><stop offset="1" stop-color="#9cffac"/></linearGradient><g><g><g><path d="m286 391.004h-60c-8.291 0-15 6.709-15 15v30c0 24.814 20.186 45 45 45s45-20.186 45-45v-30c0-8.292-6.709-15-15-15zm-179.652-333.75c6.211-5.479 6.797-14.956 1.318-21.167-5.508-6.24-14.941-6.812-21.182-1.333-54.961 48.5-86.484 118.198-86.484 191.25 0 8.291 6.709 15 15 15s15-6.709 15-15c0-64.439 27.832-125.948 76.348-168.75zm319.168-22.5c-6.27-5.479-15.703-4.907-21.182 1.333-5.479 6.211-4.893 15.688 1.318 21.167 48.516 42.802 76.348 104.311 76.348 168.75 0 8.291 6.709 15 15 15s15-6.709 15-15c0-73.052-31.523-142.75-86.484-191.25zm-300.536 46.025c-41.279 37.017-64.98 89.956-64.98 145.225 0 8.291 6.709 15 15 15s15-6.709 15-15c0-46.758 20.039-91.553 55.02-122.9 6.152-5.522 6.68-15 1.143-21.182-5.539-6.197-15.03-6.68-21.183-1.143zm262.04 0c-6.152-5.508-15.615-5.024-21.182 1.143-5.537 6.182-5.01 15.659 1.143 21.182 34.98 31.348 55.02 76.143 55.02 122.9 0 8.291 6.709 15 15 15s15-6.709 15-15c-.001-55.269-23.702-108.208-64.981-145.225z" fill="url(#SVGID_1_)"/></g></g><g><g><path d="m406 391.004h-15v-165c0-58.447-35.947-108.237-90.557-127.09-3.398-21.46-22.031-37.91-44.443-37.91s-41.045 16.479-44.443 37.939c-53.848 18.867-90.557 69.639-90.557 127.061v165h-15c-8.291 0-15 6.709-15 15s6.709 15 15 15h300c8.291 0 15-6.709 15-15s-6.709-15-15-15z" fill="url(#SVGID_2_)"/></g></g></g></svg>