<svg id="Capa_1" enable-background="new 0 0 512 512" height="512" viewBox="0 0 512 512" width="512" xmlns="http://www.w3.org/2000/svg" xmlns:xlink="http://www.w3.org/1999/xlink"><linearGradient id="SVGID_1_" gradientUnits="userSpaceOnUse" x1="256" x2="256" y1="512" y2="0"><stop offset="0" stop-color="#009efd"/><stop offset="1" stop-color="#2af598"/></linearGradient><g><g><path d="m396 296v-100c0-66.168-53.832-120-120-120v-76h-40v76c-66.168 0-120 53.832-120 120v100c0 15.279-8.689 32.657-17.889 51.056-10.87 21.741-22.111 44.223-22.111 68.944v20h120v16c0 33.084 26.916 60 60 60s60-26.916 60-60v-16h120v-20c0-24.721-11.241-47.203-22.111-68.944-9.2-18.399-17.889-35.777-17.889-51.056zm-120 156c0 11.028-8.972 20-20 20s-20-8.972-20-20v-16h40zm-156.105-56c3.395-9.857 8.607-20.282 13.994-31.056 10.87-21.741 22.111-44.223 22.111-68.944v-100c0-44.112 35.888-80 80-80h40c44.112 0 80 35.888 80 80v100c0 24.721 11.241 47.203 22.111 68.944 5.387 10.774 10.6 21.198 13.994 31.056zm3.025-313.08-28.284-28.284c-37.812 37.812-58.636 88.016-58.636 141.364h40c0-42.663 16.664-82.822 46.92-113.08zm294.444-28.284-28.285 28.284c30.258 30.258 46.921 70.417 46.921 113.08h40c0-53.348-20.824-103.552-58.636-141.364z" fill="url(#SVGID_1_)"/></g></g></svg>