<svg width="38" height="30" viewBox="0 0 38 30" fill="none" xmlns="http://www.w3.org/2000/svg">
<path d="M31.8333 5H26.3333V3.33333C26.3333 2.44928 25.947 1.60143 25.2594 0.976311C24.5717 0.351189 23.6391 0 22.6667 0H15.3333C14.3609 0 13.4282 0.351189 12.7406 0.976311C12.053 1.60143 11.6667 2.44928 11.6667 3.33333V5H6.16666C4.70797 5 3.30902 5.52678 2.27757 6.46447C1.24612 7.40215 0.666656 8.67392 0.666656 10V25C0.666656 26.3261 1.24612 27.5979 2.27757 28.5355C3.30902 29.4732 4.70797 30 6.16666 30H31.8333C33.292 30 34.691 29.4732 35.7224 28.5355C36.7539 27.5979 37.3333 26.3261 37.3333 25V10C37.3333 8.67392 36.7539 7.40215 35.7224 6.46447C34.691 5.52678 33.292 5 31.8333 5ZM15.3333 3.33333H22.6667V5H15.3333V3.33333ZM33.6667 25C33.6667 25.442 33.4735 25.866 33.1297 26.1785C32.7859 26.4911 32.3196 26.6667 31.8333 26.6667H6.16666C5.68043 26.6667 5.21411 26.4911 4.87029 26.1785C4.52648 25.866 4.33332 25.442 4.33332 25V16.6667H11.6667V18.3333C11.6667 18.7754 11.8598 19.1993 12.2036 19.5118C12.5474 19.8244 13.0138 20 13.5 20C13.9862 20 14.4525 19.8244 14.7964 19.5118C15.1402 19.1993 15.3333 18.7754 15.3333 18.3333V16.6667H22.6667V18.3333C22.6667 18.7754 22.8598 19.1993 23.2036 19.5118C23.5474 19.8244 24.0138 20 24.5 20C24.9862 20 25.4525 19.8244 25.7964 19.5118C26.1402 19.1993 26.3333 18.7754 26.3333 18.3333V16.6667H33.6667V25ZM33.6667 13.3333H4.33332V10C4.33332 9.55797 4.52648 9.13405 4.87029 8.82149C5.21411 8.50893 5.68043 8.33333 6.16666 8.33333H31.8333C32.3196 8.33333 32.7859 8.50893 33.1297 8.82149C33.4735 9.13405 33.6667 9.55797 33.6667 10V13.3333Z" fill="#B3B4B6"/>
<path d="M31.8333 5H26.3333V3.33333C26.3333 2.44928 25.947 1.60143 25.2594 0.976311C24.5717 0.351189 23.6391 0 22.6667 0H15.3333C14.3609 0 13.4282 0.351189 12.7406 0.976311C12.053 1.60143 11.6667 2.44928 11.6667 3.33333V5H6.16666C4.70797 5 3.30902 5.52678 2.27757 6.46447C1.24612 7.40215 0.666656 8.67392 0.666656 10V25C0.666656 26.3261 1.24612 27.5979 2.27757 28.5355C3.30902 29.4732 4.70797 30 6.16666 30H31.8333C33.292 30 34.691 29.4732 35.7224 28.5355C36.7539 27.5979 37.3333 26.3261 37.3333 25V10C37.3333 8.67392 36.7539 7.40215 35.7224 6.46447C34.691 5.52678 33.292 5 31.8333 5ZM15.3333 3.33333H22.6667V5H15.3333V3.33333ZM33.6667 25C33.6667 25.442 33.4735 25.866 33.1297 26.1785C32.7859 26.4911 32.3196 26.6667 31.8333 26.6667H6.16666C5.68043 26.6667 5.21411 26.4911 4.87029 26.1785C4.52648 25.866 4.33332 25.442 4.33332 25V16.6667H11.6667V18.3333C11.6667 18.7754 11.8598 19.1993 12.2036 19.5118C12.5474 19.8244 13.0138 20 13.5 20C13.9862 20 14.4525 19.8244 14.7964 19.5118C15.1402 19.1993 15.3333 18.7754 15.3333 18.3333V16.6667H22.6667V18.3333C22.6667 18.7754 22.8598 19.1993 23.2036 19.5118C23.5474 19.8244 24.0138 20 24.5 20C24.9862 20 25.4525 19.8244 25.7964 19.5118C26.1402 19.1993 26.3333 18.7754 26.3333 18.3333V16.6667H33.6667V25ZM33.6667 13.3333H4.33332V10C4.33332 9.55797 4.52648 9.13405 4.87029 8.82149C5.21411 8.50893 5.68043 8.33333 6.16666 8.33333H31.8333C32.3196 8.33333 32.7859 8.50893 33.1297 8.82149C33.4735 9.13405 33.6667 9.55797 33.6667 10V13.3333Z" stroke="#B3B4B6"/>
</svg>
