<svg width="22" height="20" viewBox="0 0 22 20" fill="none" xmlns="http://www.w3.org/2000/svg">
<path d="M4.705 1.71L3.295 0.29C0 3.563 0 5.935 0 9H1L2 8.937C2 6.009 2 4.396 4.705 1.71ZM18.704 0.29L17.296 1.71C20 4.396 20 6.009 20 9L22 8.937C22 5.935 22 3.563 18.704 0.29V0.29ZM11 20C11.6193 20.0008 12.2235 19.8086 12.7285 19.4502C13.2335 19.0917 13.6143 18.5849 13.818 18H8.182C8.38566 18.5849 8.76648 19.0917 9.27151 19.4502C9.77654 19.8086 10.3807 20.0008 11 20V20ZM18 12.586V8C18 4.783 15.815 2.073 12.855 1.258C12.562 0.52 11.846 0 11 0C10.154 0 9.438 0.52 9.145 1.258C6.184 2.073 4 4.783 4 8V12.586L2.293 14.293C2.19996 14.3857 2.12617 14.4959 2.07588 14.6172C2.0256 14.7386 1.99981 14.8687 2 15V16C2 16.2652 2.10536 16.5196 2.29289 16.7071C2.48043 16.8946 2.73478 17 3 17H19C19.2652 17 19.5196 16.8946 19.7071 16.7071C19.8946 16.5196 20 16.2652 20 16V15C20.0002 14.8687 19.9744 14.7386 19.9241 14.6172C19.8738 14.4959 19.8 14.3857 19.707 14.293L18 12.586Z" fill="black"/>
</svg>
