<svg width="29" height="27" viewBox="0 0 29 27" fill="none" xmlns="http://www.w3.org/2000/svg">
<path d="M24.6518 3.92515C23.3223 2.67585 21.739 1.6854 19.9942 1.01152C18.2495 0.337633 16.3781 -0.00621075 14.4891 2.22101e-05C6.57394 2.22101e-05 0.12325 6.00415 0.116 13.3751C0.116 15.736 0.779375 18.0326 2.03181 20.0661L0 27L7.61975 25.1404C9.7277 26.2084 12.0892 26.7683 14.4891 26.7688H14.4964C22.4134 26.7688 28.8623 20.7647 28.8695 13.387C28.8713 11.6287 28.4994 9.8874 27.7752 8.2635C27.0511 6.63961 25.9889 5.16517 24.65 3.92515H24.6518ZM14.4891 24.5042C12.3486 24.5049 10.2473 23.9686 8.40638 22.9517L7.97137 22.7087L3.451 23.8123L4.65812 19.7066L4.37538 19.2831C3.17878 17.5118 2.54592 15.4609 2.55019 13.3684C2.55019 7.24952 7.90975 2.2579 14.4964 2.2579C16.0655 2.25528 17.6197 2.54186 19.0694 3.10113C20.519 3.66039 21.8354 4.48128 22.9426 5.51646C24.0537 6.5476 24.9346 7.77336 25.5344 9.12304C26.1341 10.4727 26.441 11.9196 26.4371 13.3802C26.4299 19.521 21.0703 24.5042 14.4891 24.5042V24.5042ZM21.0413 16.1781C20.6843 16.011 18.9207 15.2027 18.589 15.088C18.2591 14.9783 18.0181 14.9209 17.7824 15.255C17.5414 15.5875 16.8526 16.3451 16.646 16.5628C16.4394 16.7873 16.2255 16.8126 15.8666 16.6472C15.5096 16.4785 14.3514 16.1275 12.9811 14.985C11.9118 14.0991 11.1958 13.0022 10.9819 12.6698C10.7753 12.3356 10.962 12.1568 11.1414 11.9897C11.2991 11.8412 11.4985 11.5982 11.6779 11.4058C11.8592 11.2135 11.919 11.0717 12.0368 10.849C12.1546 10.6228 12.0984 10.4305 12.0096 10.2634C11.919 10.0963 11.2031 8.44765 10.9004 7.78277C10.6104 7.12633 10.3149 7.21746 10.0938 7.20902C9.88719 7.19721 9.64613 7.19721 9.40506 7.19721C9.22302 7.20142 9.04388 7.24062 8.87888 7.31235C8.71389 7.38408 8.56659 7.48678 8.44625 7.61402C8.11637 7.94815 7.19381 8.75646 7.19381 10.4051C7.19381 12.0538 8.48069 13.6384 8.66194 13.8628C8.83956 14.0873 11.1886 17.4606 14.7936 18.9118C15.6455 19.2578 16.3161 19.462 16.8399 19.6172C17.7009 19.8737 18.4784 19.8349 19.0983 19.7522C19.7871 19.6543 21.2208 18.9422 21.5234 18.1609C21.8207 17.3779 21.8207 16.7096 21.7301 16.5696C21.6413 16.4278 21.4002 16.3451 21.0413 16.1781V16.1781Z" fill="#B3B4B6" stroke="#B3B4B6"/>
</svg>
